# xmcd CD database file
#
# Track frame offsets:
#	150
#	24164
#	60061
#	88810
#	131557
#	169227
#	233969
#
# Disc length: 3618 seconds
#
# Revision: 0
# Processed by: cddbd v1.5.2PL0 Copyright (c) Steve Scherf et al.
# Submitted via: CDex 1.51
#
DISCID=4d0e2007
DTITLE=Namchylak,Puschnig, Urbanek - Zerra - Namchylak,Puschnig, Urbanek
DYEAR=2010
DGENRE=Jazz
TTITLE0=Terra1
TTITLE1=Terra2
TTITLE2=Terra3
TTITLE3=Terra4
TTITLE4=Terra5
TTITLE5=Terra6
TTITLE6=Terra7
EXTD=YEAR: 2010
EXTT0=
EXTT1=
EXTT2=
EXTT3=
EXTT4=
EXTT5=
EXTT6=
PLAYORDER=
